<svg width="110" height="110" viewBox="0 0 110 110" fill="none" xmlns="http://www.w3.org/2000/svg">
<path d="M64.1667 9.1665H27.5C25.0689 9.1665 22.7373 10.1323 21.0182 11.8514C19.2991 13.5704 18.3334 15.902 18.3334 18.3332V91.6665C18.3334 94.0977 19.2991 96.4292 21.0182 98.1483C22.7373 99.8674 25.0689 100.833 27.5 100.833H82.5C84.9312 100.833 87.2628 99.8674 88.9818 98.1483C90.7009 96.4292 91.6667 94.0977 91.6667 91.6665V36.6665L64.1667 9.1665Z" fill="#DADADA"/>
<path d="M64.1667 9.1665V36.6665H91.6667" fill="#DADADA"/>
<path d="M45.8334 41.2498H36.6667Z" fill="#DADADA"/>
<path d="M64.1667 9.1665H27.5C25.0689 9.1665 22.7373 10.1323 21.0182 11.8514C19.2991 13.5704 18.3334 15.902 18.3334 18.3332V91.6665C18.3334 94.0977 19.2991 96.4292 21.0182 98.1483C22.7373 99.8674 25.0689 100.833 27.5 100.833H82.5C84.9312 100.833 87.2628 99.8674 88.9818 98.1483C90.7009 96.4292 91.6667 94.0977 91.6667 91.6665V36.6665M64.1667 9.1665L91.6667 36.6665M64.1667 9.1665V36.6665H91.6667M73.3334 59.5832H36.6667M73.3334 77.9165H36.6667M45.8334 41.2498H36.6667" stroke="#8A8A8A" stroke-width="4" stroke-linecap="round" stroke-linejoin="round"/>
</svg>
