<svg width="35" height="35" viewBox="0 0 35 35" fill="none" xmlns="http://www.w3.org/2000/svg">
<path fill-rule="evenodd" clip-rule="evenodd" d="M32.7178 7.33671C33.093 7.32279 33.4432 7.58364 33.4432 7.98225C33.4432 8.30245 33.123 8.57869 32.9032 8.74575C31.6825 9.69537 30.2786 10.4281 28.8549 11.0143C24.6974 12.7354 20.0779 13.3293 15.6325 13.9008C15.4241 13.9276 15.216 13.9543 15.0085 13.9811C12.2886 14.3394 9.56353 14.601 6.82825 14.7754C5.81489 14.8399 4.79859 14.2998 3.94862 13.7906C3.07228 13.2718 2.23037 12.5816 1.7497 11.6693C1.3489 10.9036 1.2976 9.7474 2.00542 9.13996C2.54031 8.67907 3.36683 8.70325 4.02702 8.75015C4.55942 8.7913 5.08426 8.88571 5.60954 8.98019C5.85129 9.02368 6.09314 9.06719 6.33586 9.10552C6.88594 9.19071 7.43779 9.28761 7.98923 9.38444C8.67107 9.50417 9.3523 9.62379 10.0288 9.72102C17.1839 10.7534 24.8439 10.2625 31.6304 7.6811C31.7146 7.64911 31.799 7.61359 31.8839 7.57784C32.1531 7.46453 32.4276 7.34897 32.7178 7.33671ZM22.0185 18.878C22.1972 19.2744 22.3174 19.7045 22.3914 20.1463C22.5885 21.2974 22.4727 22.5445 22.2727 23.6363C22.1298 24.4328 21.9107 25.2146 21.658 25.981C20.9838 28.0451 19.9932 30.044 18.4464 31.6011C18.1899 31.8619 17.8683 32.1015 17.4785 31.9447C17.3847 31.9066 17.3026 31.8473 17.244 31.7645C17.1322 31.5929 17.1985 31.3724 17.2548 31.1851C17.262 31.1613 17.269 31.1379 17.2755 31.1153C17.3517 30.8596 17.4228 30.5994 17.4902 30.3386C18.1628 27.8092 18.7908 25.0835 18.6648 22.4493C18.6362 21.8433 18.5622 21.2286 18.2991 20.6863C18.0339 20.1412 17.5444 19.6788 16.9472 19.5836C16.6065 19.525 16.2519 19.5946 15.9412 19.7455C15.7946 19.8195 15.6554 19.9104 15.5382 20.0247C15.3448 20.2064 15.2099 20.4504 15.1176 20.701C14.8194 21.4872 14.9242 22.2749 15.0583 23.0802C15.1645 23.711 15.0634 24.4137 14.4889 24.7882C14.0456 25.0739 13.4572 25.0952 12.9648 24.9039C12.4688 24.7134 12.0636 24.3287 11.7866 23.8774C10.9301 22.4991 10.9117 20.4665 11.3865 18.9578C11.4862 18.6479 11.6027 18.3431 11.7514 18.0558C12.1823 17.2044 12.8535 16.4937 13.6719 16.002C15.4752 14.9058 17.6785 14.9 19.5023 15.9632C20.6739 16.6446 21.4587 17.6653 22.0185 18.878Z" fill="#009490"/>
<path fill-rule="evenodd" clip-rule="evenodd" d="M13.9714 5.65398C13.9714 7.13044 15.168 8.32479 16.6415 8.32479C18.115 8.32479 19.3116 7.13044 19.3116 5.65398C19.3116 5.43417 19.2581 5.21288 19.1672 5.01358C18.9408 4.52924 18.6807 4.29257 18.7063 3.71078C18.74 2.92823 17.7347 2.9165 17.1925 2.9165C16.6027 2.9165 15.9798 2.99857 15.4442 3.26528C15.0185 3.48071 14.6529 3.8097 14.3942 4.20904C14.1282 4.61937 13.9817 5.1037 13.9714 5.5939V5.65398Z" fill="#EC1651"/>
</svg>
