<svg width="64" height="63" viewBox="0 0 64 63" fill="none" xmlns="http://www.w3.org/2000/svg">
<path fill-rule="evenodd" clip-rule="evenodd" d="M60.6413 28.6649C60.6413 26.9496 59.2533 25.5542 57.5481 25.5542H6.4524C4.74615 25.5542 3.35915 26.9496 3.35915 28.6649L3.35815 37.223H4.3887V28.6649C4.3887 27.5186 5.31263 26.5917 6.4524 26.5917H57.5481C58.6878 26.5917 59.6108 27.5186 59.6108 28.6649V37.223H60.6413V28.6649ZM14.8681 31.0808C14.8681 30.9851 14.8163 30.9398 14.7431 30.9398H14.0076C13.9188 30.9398 13.8826 30.9851 13.8826 31.0808V34.3113C13.8826 34.7034 14.1766 35.1621 14.7431 35.1621H14.7431C14.8085 35.1621 14.8887 35.1621 14.9551 35.148L16.3673 34.7485C16.4483 34.7269 16.4991 34.7634 16.4991 34.8523V36.9372C16.4991 37.0185 16.5363 37.0698 16.6231 37.0698H16.72C16.7942 37.0698 16.8596 37.0267 16.9036 36.9511L17.4037 36.1302C17.4545 36.0198 17.4915 35.9087 17.4915 35.7908V31.0808C17.4915 30.9851 17.4397 30.9398 17.3597 30.9398H16.6231C16.5363 30.9398 16.4991 30.9851 16.4991 31.0808V34.2014C16.4991 34.2898 16.4405 34.3336 16.3527 34.3336H15.0077C14.9033 34.3336 14.8681 34.2898 14.8681 34.2014V31.0808ZM55.2389 29.2846C55.2389 29.2025 55.2027 29.1425 55.1139 29.1425H54.3638C54.2906 29.1425 54.2544 29.2025 54.2544 29.2846V30.8136C54.2544 30.9035 54.2104 30.9399 54.1148 30.9399H53.4379C53.2464 30.9399 53.0852 30.985 52.923 31.0872L52.1447 31.5461C51.7912 31.738 51.622 32.0412 51.622 32.441V34.3056C51.622 34.815 52.0921 35.1699 52.4755 35.1542C52.5479 35.1542 52.6143 35.1542 52.6956 35.1316L54.1148 34.7486C54.2104 34.7186 54.2544 34.7564 54.2544 34.8522V34.9705C54.2544 35.058 54.2906 35.088 54.3638 35.088H55.1139C55.2027 35.088 55.2389 35.058 55.2389 34.9779V29.2846ZM47.7836 31.0808C47.7836 30.985 47.7395 30.9399 47.6595 30.9399H45.9737C45.7911 30.9399 45.6298 30.985 45.4678 31.0872L44.6815 31.5461C44.3367 31.738 44.1668 32.0412 44.1668 32.441V34.3056C44.1668 34.7784 44.5565 35.1542 45.0204 35.1542C45.0928 35.1542 45.1592 35.1542 45.2392 35.1316L46.6516 34.7486C46.7472 34.7186 46.799 34.7564 46.799 34.8522V34.9705C46.799 35.058 46.8284 35.088 46.9084 35.088H47.6595C47.7395 35.088 47.7836 35.058 47.7836 34.9779V31.0808ZM35.5902 31.0808C35.5902 30.985 35.5462 30.9399 35.4652 30.9399H33.7814C33.5967 30.9399 33.4355 30.985 33.2755 31.0872L32.4872 31.5461C32.1425 31.738 31.9735 32.0412 31.9735 32.441V34.3056C31.9735 34.7784 32.3632 35.1542 32.8262 35.1542C32.8994 35.1542 32.9658 35.1542 33.0469 35.1316L34.4583 34.7486C34.5529 34.7186 34.6057 34.7564 34.6057 34.8522V34.9705C34.6057 35.058 34.6341 35.088 34.7141 35.088H35.4652C35.5462 35.088 35.5902 35.058 35.5902 34.9779V31.0808ZM19.4627 31.0808C19.4627 30.9851 19.4119 30.9398 19.3455 30.9398H18.6019C18.5131 30.9398 18.4769 30.9851 18.4769 31.0808V34.3054C18.4769 34.7849 18.8728 35.1542 19.3221 35.1542C19.3951 35.1542 19.4765 35.1542 19.5507 35.1317L20.9629 34.7484C21.0431 34.7187 21.1017 34.7565 21.1017 34.8523V34.9706C21.1017 35.0579 21.1309 35.0881 21.2187 35.0881H21.9552C22.0352 35.0881 22.087 35.0579 22.087 34.978V31.0808C22.087 30.9851 22.0352 30.9398 21.9552 30.9398H21.2187C21.1309 30.9398 21.1017 30.9851 21.1017 31.0808V34.2014C21.1017 34.2897 21.0431 34.3272 20.9551 34.3272H19.6093C19.5065 34.3272 19.4627 34.2897 19.4627 34.2014V31.0808ZM31.1355 29.2846C31.1355 29.2025 31.0993 29.1425 31.0105 29.1425H30.2604C30.1881 29.1425 30.1509 29.2025 30.1509 29.2846V30.8136C30.1509 30.9035 30.1067 30.9399 30.0111 30.9399H29.3342C29.1438 30.9399 28.9816 30.985 28.8195 31.0872L28.041 31.5461C27.6876 31.738 27.5196 32.0412 27.5196 32.441V34.3056C27.5196 34.815 27.9884 35.1699 28.3713 35.1542C28.4455 35.1542 28.5119 35.1542 28.5919 35.1316L30.0111 34.7486C30.1067 34.7186 30.1509 34.7564 30.1509 34.8522V34.9705C30.1509 35.058 30.1881 35.088 30.2604 35.088H31.0105C31.0993 35.088 31.1355 35.058 31.1355 34.9779V29.2846ZM9.56762 29.7798C9.56762 29.6977 9.51481 29.654 9.4346 29.654H8.65529C8.58108 29.654 8.55248 29.6977 8.55248 29.7798V34.978C8.55248 35.0579 8.58108 35.0881 8.65529 35.0881H9.4346C9.51481 35.0881 9.56762 35.0579 9.56762 34.9706V32.8774C9.56762 32.7819 9.61823 32.7298 9.70624 32.7298H11.7133C11.8081 32.7298 11.8755 32.7819 11.8755 32.8774V34.9706C11.8755 35.0579 11.9048 35.0881 11.9928 35.0881H12.7575C12.8453 35.0881 12.8981 35.0579 12.8981 34.978V29.7798C12.8981 29.6977 12.8453 29.654 12.7575 29.654H11.9928C11.9048 29.654 11.8755 29.6977 11.8755 29.7798V31.79C11.8755 31.886 11.8081 31.9315 11.7133 31.9315H9.70624C9.61823 31.9315 9.56762 31.886 9.56762 31.79V29.7798ZM26.6815 31.738C26.6815 31.2803 26.3064 30.8735 25.822 30.8735C25.7681 30.8735 25.7192 30.8849 25.6689 30.8966C25.649 30.9012 25.6289 30.9059 25.6081 30.9099L24.2045 31.295C24.0931 31.325 24.0571 31.2866 24.0571 31.2065V31.0807C24.0571 30.985 24.0043 30.9399 23.9399 30.9399H23.1956C23.1088 30.9399 23.0726 30.985 23.0726 31.0807V34.9779C23.0726 35.058 23.1088 35.088 23.1956 35.088H23.9399C24.0043 35.088 24.0571 35.058 24.0571 34.9705V31.8501C24.0571 31.7537 24.1011 31.7016 24.2045 31.7016H25.5495C25.6374 31.7016 25.697 31.7537 25.697 31.8501V34.9705C25.697 35.058 25.7264 35.088 25.8142 35.088H26.5497C26.6287 35.088 26.6815 35.058 26.6815 34.9779V31.738ZM37.5612 31.0808C37.5612 30.9851 37.5084 30.9398 37.4362 30.9398H36.6997C36.604 30.9398 36.5746 30.9851 36.5746 31.0808V34.978C36.5746 35.0579 36.604 35.0881 36.6997 35.0881H37.4362C37.5084 35.0881 37.5612 35.0579 37.5612 34.978V31.0808ZM43.4812 29.7876C43.4812 29.6976 43.4372 29.654 43.3503 29.654H41.5267C41.3577 29.654 41.174 29.6976 41.0188 29.7934L40.1593 30.2749C39.7978 30.4885 39.622 30.8078 39.622 31.2208V34.024C39.622 34.7112 40.1729 35.088 40.6966 35.088H42.2838C42.4604 35.088 42.6362 35.0516 42.8063 34.9544L43.4372 34.6012C43.5184 34.5563 43.5564 34.4893 43.5564 34.409C43.5564 34.3336 43.5046 34.297 43.4236 34.297H40.7982C40.7102 34.297 40.673 34.2535 40.673 34.1575V30.5921C40.673 30.4958 40.7102 30.4443 40.7982 30.4443H43.3503C43.4372 30.4443 43.4812 30.4084 43.4812 30.3264V29.7876ZM51.4755 31.0209C51.4755 30.9398 51.4226 30.8956 51.3426 30.8956H50.909C50.7176 30.8956 50.5553 30.9398 50.4001 31.0209L49.9742 31.3028C49.945 31.3167 49.9156 31.3167 49.8942 31.3167C49.7984 31.3167 49.7614 31.2802 49.7614 31.1992V31.0809C49.7614 30.9851 49.7028 30.9398 49.6294 30.9398H48.8873C48.7983 30.9398 48.7691 30.9851 48.7691 31.0809V34.978C48.7691 35.0579 48.7983 35.0881 48.8873 35.0881H49.6294C49.7028 35.0881 49.7614 35.0579 49.7614 34.9706V31.85C49.7614 31.7538 49.7984 31.7017 49.8942 31.7017H51.3426C51.4226 31.7017 51.4755 31.6643 51.4755 31.5907V31.0209ZM28.5041 31.8575C28.5041 31.7537 28.5411 31.7016 28.6447 31.7016H30.0045C30.1067 31.7016 30.1509 31.7537 30.1509 31.8575V34.2014C30.1509 34.2897 30.1067 34.3271 30.0045 34.3271H28.6447C28.5411 34.3271 28.5041 34.2897 28.5041 34.2014V31.8575ZM32.958 31.8575C32.958 31.7537 32.995 31.7016 33.0977 31.7016H34.4583C34.5529 31.7016 34.6057 31.7537 34.6057 31.8575V34.2014C34.6057 34.2897 34.5529 34.3271 34.4583 34.3271H33.0977C32.995 34.3271 32.958 34.2897 32.958 34.2014V31.8575ZM45.1514 31.8575C45.1514 31.7537 45.1884 31.7016 45.292 31.7016H46.6516C46.7472 31.7016 46.799 31.7537 46.799 31.8575V34.2014C46.799 34.2897 46.7472 34.3271 46.6516 34.3271H45.292C45.1884 34.3271 45.1514 34.2897 45.1514 34.2014V31.8575ZM52.6065 31.8575C52.6065 31.7537 52.6447 31.7016 52.7472 31.7016H54.107C54.2104 31.7016 54.2544 31.7537 54.2544 31.8575V34.2014C54.2544 34.2897 54.2104 34.3271 54.107 34.3271H52.7472C52.6447 34.3271 52.6065 34.2897 52.6065 34.2014V31.8575ZM37.5612 29.2847C37.5612 29.2026 37.5084 29.1426 37.4362 29.1426H36.6997C36.604 29.1426 36.5746 29.2026 36.5746 29.2847V29.8896C36.5746 29.9791 36.604 30.0091 36.6997 30.0091H37.4362C37.5084 30.0091 37.5612 29.9791 37.5612 29.8896V29.2847Z" fill="black"/>
</svg>
