<svg width="35" height="35" viewBox="0 0 35 35" fill="none" xmlns="http://www.w3.org/2000/svg">
<path fill-rule="evenodd" clip-rule="evenodd" d="M28.8813 16.6177C26.673 17.0619 25.8621 18.3336 25.2807 18.0382C24.7729 17.6245 25.3281 15.2703 25.4478 14.3233C25.6025 13.0821 23.932 12.3243 23.3618 13.8473C22.8902 15.368 23.1123 20.7488 23.2171 21.6995C23.3281 22.7197 25.1147 22.6795 25.3031 21.7934C25.3593 21.5152 25.504 20.9318 25.9194 20.1166C27.7023 16.7556 31.6011 18.2347 31.2181 20.5938C30.5581 24.2062 23.8559 24.1293 22.9726 23.3592C21.6501 22.4183 17.4618 19.6394 13.4145 17.0045C13.4195 16.8178 13.427 16.6177 13.4358 16.431C19.0663 13.1407 24.7379 9.81022 25.4478 9.18659C26.567 8.19195 25.3281 6.42114 23.8921 7.55734C22.9339 8.3262 18.3863 11.2869 13.5842 14.3282C13.9111 10.6535 14.4925 8.54099 14.7483 7.57077C15.2236 5.76334 12.636 5.08601 12.1956 6.9093C11.4658 9.91518 11.0615 12.76 10.8619 15.357C8.12963 13.6057 5.78785 12.1266 4.90703 11.6591C2.35689 10.2947 2.09115 12.799 3.10671 13.2713C3.59328 13.5044 6.16962 15.0592 9.32984 17.0021C6.15091 18.9926 3.31132 20.7244 1.8803 21.5457C0.929616 22.3231 1.74805 23.3592 2.72744 22.782C4.30068 21.7934 7.35112 20.0007 10.7197 18.0236C10.5899 23.2933 11.3285 27.1083 11.9074 28.2958C12.6635 29.8225 13.9086 29.1562 13.709 27.7246C13.4395 24.5613 13.3409 21.8276 13.3522 19.4832C18.2341 22.5001 23.0973 25.5389 23.5527 25.822C24.6843 26.5262 25.7298 25.7232 25.8271 25.1557C29.7646 24.7883 32.4994 24.1025 33.379 20.988C34.2835 17.8039 31.2256 16.1478 28.8813 16.6177Z" fill="#FCB813"/>
</svg>
