<svg width="213" height="173" viewBox="0 0 213 173" fill="none" xmlns="http://www.w3.org/2000/svg">
<g filter="url(#filter0_d_2607_1067)">
<rect x="54.1852" y="64.166" width="148.546" height="94.3703" rx="10" fill="white"/>
</g>
<g filter="url(#filter1_d_2607_1067)">
<rect x="29.7188" y="67.6604" width="148.546" height="94.3703" rx="10" transform="rotate(-15 29.7188 67.6604)" fill="#D0FFC8"/>
</g>
<g filter="url(#filter2_d_2607_1067)">
<rect x="7" y="77.2729" width="148.546" height="94.3703" rx="10" transform="rotate(-30 7 77.2729)" fill="#B0FFA3"/>
</g>
<path d="M49.6831 85.4551C48.256 83.6629 46.0415 83.3391 43.9814 84.5285C41.2099 86.1286 40.6269 89.3103 42.7792 93.0382C44.9882 96.8643 48.003 97.838 50.7254 96.2662C52.761 95.0909 53.6058 93.0989 52.8692 90.9735L56.6113 88.8457C58.0918 92.3729 57.0724 96.951 52.5596 99.5565C47.8016 102.304 42.3685 100.993 39.0268 95.2047C35.685 89.4166 37.34 84.0136 42.0245 81.309C46.1203 78.9443 50.57 79.5146 53.4111 83.3028L49.6831 85.4551ZM59.8063 90.0749C58.093 87.1073 59.9301 84.7385 62.3959 83.1187C63.317 82.5052 65.0578 81.3856 65.6078 81.0354L64.9847 79.9563C64.323 78.8668 63.1804 78.6435 61.8314 79.4223C60.6051 80.1303 60.146 81.1476 60.4737 82.1683L57.0155 84.1649C55.9052 81.732 56.8685 78.7559 60.4002 76.7169C63.2943 75.046 66.7917 74.7599 68.6467 77.9728L73.8293 86.9494L70.3957 88.9318L69.3337 87.0924L69.2355 87.149C69.2814 88.7576 68.5261 90.3382 66.5395 91.4852C63.9888 92.9578 61.3356 92.7238 59.8063 90.0749ZM63.2324 87.9661C63.8271 88.9962 64.9725 89.0543 66.1253 88.3888C67.7685 87.4401 68.3086 85.6567 67.4769 84.2729L66.9105 83.2918C66.3728 83.635 64.8772 84.6129 64.2872 85.0353C63.1072 85.8801 62.6377 86.936 63.2324 87.9661ZM76.6008 85.3493L68.9118 72.0316L72.419 70.0067L73.7501 72.3122L73.8973 72.2272C73.439 70.3008 74.1697 68.7343 75.6658 67.8706C76.0337 67.6582 76.528 67.4382 76.8894 67.3277L78.7585 70.5651C78.3585 70.6653 77.6151 70.9636 77.1001 71.261C75.4568 72.2097 74.9206 74.0563 75.8551 75.675L80.2306 83.2536L76.6008 85.3493ZM91.0024 77.3288C87.9612 79.0847 84.1803 78.0301 81.6173 73.5909C78.9835 69.029 80.1437 65.3179 83.0869 63.6187C85.3188 62.3302 87.138 63.0457 88.2516 63.8416L88.3742 63.7708L84.5227 57.0997L88.1525 55.004L98.4045 72.7609L94.8237 74.8283L93.5917 72.6945L93.4201 72.7937C93.5422 74.1947 93.1607 76.0827 91.0024 77.3288ZM90.4597 73.7834C92.2746 72.7355 92.3843 70.5466 90.9966 68.143C89.6089 65.7395 87.7009 64.8136 85.886 65.8614C84.0465 66.9235 83.9859 69.0841 85.3311 71.414C86.6905 73.7685 88.6203 74.8454 90.4597 73.7834ZM86.4731 96.3881L91.035 93.7544L102.917 102.95L103.114 102.837L101.091 87.9487L105.653 85.3149L115.904 103.072L112.324 105.139L105.612 93.5138L105.465 93.5988L107.499 107.827L105.046 109.243L93.7128 100.318L93.5656 100.403L100.306 112.078L96.7251 114.145L86.4731 96.3881ZM124.963 98.2015C120.941 100.524 116.839 99.1966 114.46 95.0762C112.081 90.9558 112.997 86.7646 117.019 84.4423C121.042 82.12 125.154 83.4085 127.533 87.5289C129.912 91.6492 128.986 95.8792 124.963 98.2015ZM123.359 95.3668C125.223 94.2906 125.174 91.997 123.829 89.667C122.47 87.3125 120.508 86.1234 118.644 87.1996C116.755 88.2899 116.78 90.5977 118.139 92.9522C119.484 95.2822 121.471 96.4571 123.359 95.3668ZM133.637 92.834L125.948 79.5163L129.455 77.4914L130.786 79.7969L130.933 79.7119C130.475 77.7855 131.206 76.2191 132.702 75.3553C133.07 75.1429 133.564 74.9229 133.925 74.8124L135.795 78.0498C135.395 78.15 134.651 78.4484 134.136 78.7457C132.493 79.6944 131.957 81.541 132.891 83.1597L137.267 90.7383L133.637 92.834ZM149.195 84.2112C145.124 86.5618 141.093 85.3573 138.657 81.1388C136.278 77.0184 137.204 72.7885 141.104 70.537C144.611 68.5121 148.633 69.1335 151.252 73.6709L151.847 74.701L142.748 79.9544C143.909 81.9655 145.833 82.5225 147.697 81.4463C148.923 80.7383 149.495 79.689 149.395 78.6672L152.853 76.6707C153.754 79.4206 152.482 82.3138 149.195 84.2112ZM141.431 77.6735L147.096 74.4025C146.162 72.7837 144.368 72.2824 142.749 73.217C141.082 74.1798 140.607 76.1052 141.431 77.6735Z" fill="black"/>
<path d="M96.6231 41.1682C97.3566 43.0898 98.5998 45.7901 98.325 46.8154C98.0503 47.8407 97.1416 48.6812 95.5456 49.9785C97.4671 49.2451 98.6494 48.8783 99.6758 49.155C100.701 49.4298 102.28 51.6174 103.578 53.2147C102.844 51.2918 101.739 48.8307 102.012 47.8034C102.289 46.777 103.198 45.9364 104.795 44.6383C102.872 45.3726 101.69 45.7393 100.665 45.4646C99.6374 45.191 97.9205 42.7642 96.6231 41.1682Z" fill="black"/>
<path d="M113.823 31.4798C116.102 37.4495 119.964 45.8386 119.11 49.0239C118.257 52.2093 115.434 54.8206 110.475 58.8511C116.445 56.5724 120.118 55.4331 123.307 56.2927C126.492 57.1462 131.397 63.9426 135.431 68.9051C133.149 62.9312 129.716 55.2849 130.566 52.0935C131.426 48.9046 134.249 46.2933 139.211 42.2603C133.237 44.5415 129.564 45.6809 126.379 44.8273C123.188 43.9773 117.854 36.4381 113.823 31.4798Z" fill="black"/>
<defs>
<filter id="filter0_d_2607_1067" x="44.1852" y="58.166" width="168.546" height="114.37" filterUnits="userSpaceOnUse" color-interpolation-filters="sRGB">
<feFlood flood-opacity="0" result="BackgroundImageFix"/>
<feColorMatrix in="SourceAlpha" type="matrix" values="0 0 0 0 0 0 0 0 0 0 0 0 0 0 0 0 0 0 127 0" result="hardAlpha"/>
<feOffset dy="4"/>
<feGaussianBlur stdDeviation="5"/>
<feComposite in2="hardAlpha" operator="out"/>
<feColorMatrix type="matrix" values="0 0 0 0 0 0 0 0 0 0 0 0 0 0 0 0 0 0 0.1 0"/>
<feBlend mode="normal" in2="BackgroundImageFix" result="effect1_dropShadow_2607_1067"/>
<feBlend mode="normal" in="SourceGraphic" in2="effect1_dropShadow_2607_1067" result="shape"/>
</filter>
<filter id="filter1_d_2607_1067" x="21.9638" y="25.459" width="183.419" height="145.111" filterUnits="userSpaceOnUse" color-interpolation-filters="sRGB">
<feFlood flood-opacity="0" result="BackgroundImageFix"/>
<feColorMatrix in="SourceAlpha" type="matrix" values="0 0 0 0 0 0 0 0 0 0 0 0 0 0 0 0 0 0 127 0" result="hardAlpha"/>
<feOffset dy="4"/>
<feGaussianBlur stdDeviation="5"/>
<feComposite in2="hardAlpha" operator="out"/>
<feColorMatrix type="matrix" values="0 0 0 0 0 0 0 0 0 0 0 0 0 0 0 0 0 0 0.1 0"/>
<feBlend mode="normal" in2="BackgroundImageFix" result="effect1_dropShadow_2607_1067"/>
<feBlend mode="normal" in="SourceGraphic" in2="effect1_dropShadow_2607_1067" result="shape"/>
</filter>
<filter id="filter2_d_2607_1067" x="0.658569" y="0.658569" width="188.512" height="168.683" filterUnits="userSpaceOnUse" color-interpolation-filters="sRGB">
<feFlood flood-opacity="0" result="BackgroundImageFix"/>
<feColorMatrix in="SourceAlpha" type="matrix" values="0 0 0 0 0 0 0 0 0 0 0 0 0 0 0 0 0 0 127 0" result="hardAlpha"/>
<feOffset dy="4"/>
<feGaussianBlur stdDeviation="5"/>
<feComposite in2="hardAlpha" operator="out"/>
<feColorMatrix type="matrix" values="0 0 0 0 0 0 0 0 0 0 0 0 0 0 0 0 0 0 0.1 0"/>
<feBlend mode="normal" in2="BackgroundImageFix" result="effect1_dropShadow_2607_1067"/>
<feBlend mode="normal" in="SourceGraphic" in2="effect1_dropShadow_2607_1067" result="shape"/>
</filter>
</defs>
</svg>
