<svg width="44" height="44" viewBox="0 0 44 44" fill="none" xmlns="http://www.w3.org/2000/svg">
<path d="M6.72768 22.6927L7.58677 21.5527C6.94898 21.2527 6.29814 20.7968 5.81979 20.1845C5.34096 19.5968 5.02206 18.8768 5.02206 18.0245V17.0404H3.42661V18.0486C3.42661 18.9127 3.11979 19.6804 2.62888 20.3404C2.13797 21.0127 1.48713 21.5404 0.800049 21.9245L1.75723 23.0168C2.3095 22.6927 2.84921 22.2845 3.29132 21.8168C3.72135 21.3727 4.0644 20.8804 4.27314 20.4127C4.77661 21.3245 5.54969 22.0686 6.72768 22.6927ZM9.86979 20.5681H11.6493V19.3086H9.86931V16.7886H8.3473V23.1245H9.86931L9.86979 20.5681ZM3.42661 28.1527H9.86931V23.5568H3.42661V28.1527ZM8.34778 24.8168V26.905H4.93606V24.8168H8.34778ZM17.9205 22.8845L18.7796 21.7204C18.1292 21.3968 17.4789 20.9645 17.0247 20.3886C16.5464 19.8245 16.2516 19.1286 16.2516 18.2286V17.0404H14.6315V18.2531C14.6315 19.069 14.3493 19.789 13.8952 20.4131C13.441 21.049 12.766 21.6009 12.0175 22.0809L12.9621 23.1972C13.5516 22.849 14.0792 22.3931 14.5209 21.949C14.9509 21.505 15.2819 21.0372 15.466 20.605C15.6621 20.989 15.9936 21.409 16.4231 21.805C16.8532 22.2254 17.3803 22.5972 17.9205 22.885V22.8845ZM20.0315 23.1845H21.5535V16.7886H20.0315V18.7804H17.8838V20.1004H20.0315V23.1845ZM21.369 25.6804C21.369 24.9127 21.0501 24.2645 20.5224 23.7968C19.9822 23.3286 19.2338 23.0527 18.3501 23.0527C17.4663 23.0527 16.73 23.3286 16.2023 23.7968C15.6621 24.2645 15.3553 24.9127 15.3553 25.6804C15.3553 26.4845 15.6621 27.1327 16.2023 27.6004C16.73 28.0445 17.4663 28.3086 18.3501 28.3086C19.2338 28.3086 19.9822 28.0445 20.5224 27.6004C21.0501 27.1327 21.369 26.4845 21.369 25.6804ZM19.8721 25.6804C19.8721 26.5086 19.2338 27.0604 18.3501 27.0604C17.4663 27.0604 16.8527 26.5086 16.8527 25.6809C16.8527 24.8645 17.4663 24.3127 18.3501 24.3127C18.7917 24.3127 19.1599 24.4568 19.442 24.6968C19.5782 24.8236 19.6865 24.9763 19.7605 25.1454C19.8344 25.3145 19.8724 25.4965 19.8721 25.6804ZM23.1978 23.5209L24.069 24.6845C25.5789 23.9645 26.8303 23.0768 27.7141 21.8886C28.5978 20.7245 29.1008 19.2486 29.138 17.3768H24.0448V18.6368H27.5913C27.554 19.0275 27.476 19.4134 27.3584 19.7886L23.578 19.9327L23.8361 21.2404L26.7202 21.0127C26.5728 21.2286 26.3887 21.4204 26.2046 21.6127C25.4315 22.3922 24.3879 22.9922 23.1978 23.5204V23.5209ZM31.7153 21.2527H33.4948V20.0045H31.7153V16.7886H30.1812V26.8563H31.7153V21.2527ZM42.5153 22.4886V21.2286H37.066V18.5527H42.4534V17.3045H35.544V22.4886H42.5153ZM33.9606 25.6927H43.9996V24.4563H33.9611L33.9606 25.6927Z" fill="#003CDC"/>
</svg>
