<svg width="35" height="35" viewBox="0 0 35 35" fill="none" xmlns="http://www.w3.org/2000/svg">
<path fill-rule="evenodd" clip-rule="evenodd" d="M16.6374 1.69514C7.98818 2.08688 1.29469 9.41379 1.68679 18.0634C2.07671 26.7101 9.40545 33.4036 18.054 33.0115C26.6999 32.6198 33.3938 25.2921 33.0013 16.6454C32.6227 8.23858 25.6887 1.67908 17.3592 1.67871C17.1197 1.67871 16.8791 1.68419 16.6374 1.69514Z" fill="white"/>
<path fill-rule="evenodd" clip-rule="evenodd" d="M16.6272 1.47492C8.11961 1.85827 1.47943 8.86573 1.45825 17.2923V17.3697C1.45862 17.6 1.46409 17.8308 1.47468 18.063C1.87153 26.8265 9.29738 33.6087 18.0631 33.2137C26.8266 32.8183 33.6121 25.391 33.2138 16.6256C32.829 8.10745 25.8004 1.4585 17.3589 1.4585C17.1161 1.4585 16.8722 1.46397 16.6272 1.47492ZM18.5182 31.3174C18.5028 30.9589 19.0289 30.868 19.0289 30.868C23.7276 29.9436 22.3541 26.8608 20.6901 25.2891C19.9913 24.6265 13.4522 18.9852 13.4522 18.9852C7.21475 13.6144 7.71528 9.4232 7.71528 9.4232C8.01466 4.26234 12.5326 2.98271 15.9505 3.27916C16.3488 3.31421 16.5704 3.55772 16.5004 3.88959C16.4248 4.25431 15.8954 4.28169 15.8954 4.28169C14.8089 4.34448 13.836 4.45693 13.097 4.95381C10.3413 6.80589 11.1566 9.95805 14.8268 13.4658C15.2872 13.9065 15.7793 14.3708 16.2824 14.8414C16.2824 14.8414 17.0217 15.4935 18.4872 16.8885C21.3129 19.4919 22.8602 20.8957 22.8602 20.8957C27.8363 25.0405 26.139 28.829 24.2332 30.1462C22.7842 31.1506 21.1771 31.6234 19.0691 31.7351C19.0512 31.7376 19.0315 31.7391 19.0111 31.7391C18.8176 31.7391 18.5332 31.6208 18.5182 31.3174ZM19.6816 16.0163C18.0687 15.6775 17.7401 14.2117 17.7401 14.2117C17.609 13.6984 17.5766 13.0492 17.6846 12.2212C17.9055 10.4871 18.3713 9.6711 18.9036 8.32758C19.6218 6.52223 17.8763 5.46604 18.1665 4.80231C18.5575 3.9031 19.8025 5.04582 21.1927 5.12833C22.3913 5.19514 23.1087 5.13454 24.0386 5.26013C25.278 5.42442 26.7559 5.84244 27.4142 6.61679C28.0184 7.32104 27.0958 8.18739 25.9841 7.6456C25.1755 7.25095 24.1547 7.49227 24.7542 8.33744C25.4726 9.14173 25.8209 9.16582 26.5544 9.35713C28.5766 9.89052 28.62 11.828 27.2491 12.8306C25.6917 13.9715 24.1138 13.4998 23.48 11.2611C23.1657 10.1461 22.3752 9.57691 21.5688 9.89709C20.7652 10.2114 21.2398 11.6809 21.8506 13.0416C22.9116 15.7498 20.7627 16.028 19.9452 16.028C19.8215 16.028 19.7284 16.0214 19.6816 16.0163ZM13.7615 30.8118C12.0083 30.6395 9.91091 30.0867 8.08694 28.5063C6.40828 27.0536 5.36705 25.0588 4.86396 23.3085C4.34554 21.5138 4.1305 19.4138 4.98261 19.5806C5.24548 19.6325 5.69855 20.7843 6.19288 21.6262C6.70217 22.4922 7.11508 22.9705 7.50719 23.2629C7.68316 23.3973 8.28226 22.0636 9.1519 21.306C9.65791 20.8895 10.2121 20.7453 10.3008 21.992C10.4118 23.5225 10.1351 25.3446 10.5816 25.3446C11.0003 25.3446 11.939 25.0274 14.0094 24.8532C14.7885 24.786 15.2302 24.9332 14.4876 25.9799C14.1178 26.5005 13.6227 27.2376 12.4508 28.0777C14.2076 29.7227 16.3174 29.5281 16.3551 30.2262C16.3784 30.6292 15.5898 30.8516 14.553 30.8516C14.3011 30.8516 14.0346 30.8388 13.7615 30.8118Z" fill="#0046FF"/>
</svg>
